# Blender 4.2.8 LTS
# www.blender.org
mtllib semiclosedTest.mtl
o Cube
v -2.186288 -2.186288 2.186288
v -2.186288 2.186288 2.186288
v -2.186288 -2.186288 -2.186288
v -2.186288 2.186288 -2.186288
v 2.186288 -2.186288 2.186288
v 2.186288 2.186288 2.186288
v 2.186288 -2.186288 -2.186288
v 2.186288 2.186288 -2.186288
v 2.356546 2.394062 -2.384314
v 0.312814 2.394062 -2.384314
v 2.356546 0.350330 -2.384314
v 2.356546 2.394062 -0.340581
v 0.312814 0.350330 -2.384314
v 2.356546 0.350330 -0.340581
v 0.312814 2.394062 -0.340581
v -2.455051 -2.359023 2.459414
v -1.130028 -2.359023 2.459414
v -2.455051 -1.034000 2.459414
v -2.455051 -2.359023 1.134391
v -1.130028 -1.034000 2.459414
v -2.455051 -1.034000 1.134391
v -1.130028 -2.359023 1.134391
vn -0.0000 1.0000 -0.0000
vn 1.0000 -0.0000 -0.0000
vn -0.0000 -0.0000 -1.0000
vn -1.0000 -0.0000 -0.0000
vn -0.0000 -0.0000 1.0000
vn -0.0000 -1.0000 -0.0000
vt 0.700758 0.500000
vt 0.700758 0.575758
vt 0.625000 0.575758
vt 0.625000 0.500000
vt 0.625000 0.750000
vt 0.375000 0.750000
vt 0.375000 0.500000
vt 0.375000 0.250000
vt 0.625000 0.250000
vt 0.375000 0.000000
vt 0.625000 0.000000
vt 0.625000 1.000000
vt 0.375000 1.000000
vt 0.125000 0.750000
vt 0.125000 0.500000
vt 0.875000 0.500000
vt 0.875000 0.750000
vt 0.549242 0.424242
vt 0.625000 0.424242
vt 0.549242 0.500000
vt 0.549242 0.575758
s 0
f 17/1/1 22/2/1 19/3/1 16/4/1
f 8/4/2 6/5/2 5/6/2 7/7/2
f 7/7/3 3/8/3 4/9/3 8/4/3
f 1/10/4 2/11/4 4/9/4 3/8/4
f 6/5/5 2/12/5 1/13/5 5/6/5
f 5/6/6 1/14/6 3/15/6 7/7/6
f 8/4/1 4/16/1 2/17/1 6/5/1
f 13/18/3 10/19/3 9/4/3 11/20/3
f 9/4/2 12/3/2 14/21/2 11/20/2
f 15/2/1 12/3/1 9/4/1 10/1/1
f 20/18/3 17/19/3 16/4/3 18/20/3
f 19/3/2 21/21/2 18/20/2 16/4/2
